<svg width="40" height="40" viewBox="0 0 40 40" fill="none" xmlns="http://www.w3.org/2000/svg">
<path d="M30.0002 28.3H20.0168C18.1835 28.3 16.7668 29.8667 15.8835 31.4667C15.1843 32.7787 14.0665 33.8194 12.7079 34.4233C11.3492 35.0271 9.82777 35.1595 8.38528 34.7994C6.94279 34.4392 5.66208 33.6072 4.74674 32.4356C3.8314 31.264 3.33396 29.8201 3.3335 28.3333C3.35016 27.1667 3.66683 26 4.2835 25" stroke="#D4183D" stroke-width="3.33333" stroke-linecap="round" stroke-linejoin="round"/>
<path d="M10 28.3331L15.2167 18.6998C16.1 17.0831 15.3833 15.0665 14.3833 13.5331C13.9114 12.7783 13.5953 11.9366 13.4539 11.0577C13.3125 10.1787 13.3486 9.28036 13.56 8.41559C13.7714 7.55081 14.1538 6.73713 14.6848 6.02256C15.2158 5.30799 15.8845 4.707 16.6515 4.25504C17.4184 3.80309 18.2682 3.50933 19.1505 3.39109C20.0329 3.27286 20.93 3.33254 21.7889 3.56662C22.6478 3.8007 23.4511 4.20444 24.1515 4.75401C24.8519 5.30359 25.435 5.98787 25.8667 6.76648" stroke="#D4183D" stroke-width="3.33333" stroke-linecap="round" stroke-linejoin="round"/>
<path d="M20 10L25.2167 19.55C26.1 21.1667 28.1667 21.6667 30 21.6667C31.7681 21.6667 33.4638 22.369 34.714 23.6193C35.9643 24.8695 36.6667 26.5652 36.6667 28.3333C36.6667 30.1014 35.9643 31.7971 34.714 33.0474C33.4638 34.2976 31.7681 35 30 35" stroke="#D4183D" stroke-width="3.33333" stroke-linecap="round" stroke-linejoin="round"/>
</svg>
