<svg width="40" height="40" viewBox="0 0 40 40" fill="none" xmlns="http://www.w3.org/2000/svg">
<path d="M20 13.333C28.2843 13.333 35 11.0944 35 8.33301C35 5.57158 28.2843 3.33301 20 3.33301C11.7157 3.33301 5 5.57158 5 8.33301C5 11.0944 11.7157 13.333 20 13.333Z" stroke="#D4183D" stroke-width="3.33333" stroke-linecap="round" stroke-linejoin="round"/>
<path d="M5 8.33301V31.6663C5 32.9924 6.58035 34.2642 9.3934 35.2019C12.2064 36.1396 16.0218 36.6663 20 36.6663C23.9782 36.6663 27.7936 36.1396 30.6066 35.2019C33.4196 34.2642 35 32.9924 35 31.6663V8.33301" stroke="#D4183D" stroke-width="3.33333" stroke-linecap="round" stroke-linejoin="round"/>
<path d="M5 20C5 21.3261 6.58035 22.5979 9.3934 23.5355C12.2064 24.4732 16.0218 25 20 25C23.9782 25 27.7936 24.4732 30.6066 23.5355C33.4196 22.5979 35 21.3261 35 20" stroke="#D4183D" stroke-width="3.33333" stroke-linecap="round" stroke-linejoin="round"/>
</svg>
