<svg width="30" height="33" viewBox="0 0 30 33" fill="none" xmlns="http://www.w3.org/2000/svg">
<path d="M19.4958 26.7715L11.2358 28.0515L11.7358 31.3715L14.2358 30.9715L14.4758 32.6715L17.8158 32.1515L17.5158 30.4715L20.0358 30.0915L19.4958 26.7715Z" fill="#717182" fill-opacity="0.5"/>
<path fill-rule="evenodd" clip-rule="evenodd" d="M13.4512 0.50293L13.6191 1.67871L15.6172 1.35938L16.1123 1.28027L16.1904 1.77539L16.373 2.94238L19.6602 2.43945L20.1592 2.3623L20.2314 2.86133L20.3975 4.01562L21.0938 3.90039L21.5898 3.81738L21.6699 4.31348L22.1299 7.18066L23.2783 6.99902L23.7734 6.9209L23.8506 7.41699L25.6523 19.0547L26.792 18.8604L27.2861 18.7764L27.3691 19.2705L27.5674 20.4473L28.7236 20.2783L29.2129 20.207L29.29 20.6953L29.7305 23.4746L29.8086 23.9707L29.3125 24.0479L1.1123 28.3877L0.624023 28.4629L0.542969 27.9756L0 24.7178L0.499023 24.6396L1.66406 24.4561L1.48242 23.291L1.40527 22.8027L1.89258 22.7197L3.06641 22.5215L1.28223 10.8887L1.20508 10.3906L1.70508 10.3184L2.86035 10.1504L2.40234 7.31348L2.32031 6.80566L2.83008 6.7373L3.52246 6.64453L3.3418 5.49023L3.26465 4.99707L3.75879 4.91895L7.0791 4.39746L6.88281 3.21582L6.7998 2.71484L7.30078 2.63867L9.30371 2.33398L9.12207 1.1709L9.04492 0.675781L9.53906 0.599609L12.8789 0.0791016L13.3799 0L13.4512 0.50293ZM8.43555 7.59082L8.65527 9.11133L7.17578 9.33105L8.05566 15.2314L9.51562 14.9912L9.75586 16.4717L15.6953 15.5908L16.1553 18.5713L11.6953 19.251L11.4551 17.7715L8.51562 18.2109L8.97559 21.1914L10.4551 20.9512L10.6953 22.4316L18.0957 21.291L17.8555 19.8115L19.3359 19.5908L18.4355 13.6514L16.9551 13.8916L16.7354 12.4111L10.7754 13.3516L10.3555 10.3711L14.7754 9.65137L15.0156 11.1514L17.9756 10.7109L17.5352 7.77148L16.0352 7.99121L15.8154 6.51172L8.43555 7.59082Z" fill="#717182" fill-opacity="0.5"/>
</svg>
