<svg width="48" height="48" viewBox="0 0 48 48" fill="none" xmlns="http://www.w3.org/2000/svg">
<path fill-rule="evenodd" clip-rule="evenodd" d="M21.897 2.50195L22.144 4.2373L24.9761 3.78516L25.4712 3.70605L25.5493 4.20117L25.8179 5.92188L30.3657 5.22461L30.8647 5.14844L30.937 5.64746L31.1831 7.35449L32.2798 7.17285L32.7759 7.08984L32.855 7.58594L33.4956 11.5723L35.1899 11.3047L35.686 11.2266L35.7622 11.7227L38.1909 27.4072L39.8774 27.1191L40.3716 27.0352L40.4546 27.5293L40.7456 29.2598L42.4497 29.0107L42.938 28.9395L43.0151 29.4277L43.6021 33.1338L43.6812 33.6299L43.1841 33.7061L5.58447 39.4932L5.09619 39.5684L5.01514 39.0811L4.31885 34.9033L4.81787 34.8252L6.53662 34.5557L6.26807 32.8359L6.19092 32.3477L6.67822 32.2656L8.40576 31.9736L6.00049 16.3018L5.92432 15.8027L6.42334 15.7305L8.13232 15.4834L7.49463 11.5322L7.4126 11.0244L7.92236 10.957L9.01416 10.8105L8.74756 9.10254L8.67041 8.60938L9.16455 8.53125L13.7583 7.80957L13.4683 6.06738L13.3853 5.56738L13.8862 5.49121L16.7231 5.05957L16.4546 3.34277L16.3765 2.84863L16.8716 2.77148L21.3247 2.07812L21.8247 2L21.897 2.50195ZM15.3745 11.9307L15.6685 13.957L13.6948 14.251L14.8677 22.1172L16.8149 21.7979L17.1353 23.7705L25.0552 22.5977L25.6685 26.5703L19.7212 27.4775L19.4019 25.5039L15.4819 26.0908L16.0952 30.0645L18.0679 29.7441L18.3882 31.7178L28.2544 30.1973L27.9351 28.2236L29.9077 27.9307L28.7085 20.0107L26.7349 20.3311L26.4419 18.3574L18.4946 19.6104L17.9351 15.6377L23.8286 14.6777L24.1479 16.6777L28.0952 16.0908L27.5083 12.1709L25.5083 12.4639L25.2144 10.4912L15.3745 11.9307Z" fill="#D4183D"/>
<path d="M29.1466 39.5684L18.1333 41.275L18.8 45.7017L22.1333 45.1684L22.4533 47.435L26.9066 46.7417L26.5066 44.5017L29.8666 43.995L29.1466 39.5684Z" fill="#D4183D"/>
</svg>
